<svg xmlns="http://www.w3.org/2000/svg" viewBox="0 0 640 360" role="img" aria-label="GLP-1 therapy">
  <defs>
    <linearGradient id="oeBg" x1="0" y1="0" x2="1" y2="1">
      <stop offset="0" stop-color="#0a2543"></stop>
      <stop offset="0.55" stop-color="#0d2d4e"></stop>
      <stop offset="1" stop-color="#123a63"></stop>
    </linearGradient>
    <linearGradient id="oePen" x1="0" y1="0" x2="1" y2="1">
      <stop offset="0" stop-color="#00b4a6"></stop>
      <stop offset="1" stop-color="#2e7dd1"></stop>
    </linearGradient>
    <radialGradient id="oeGlow" cx="0.8" cy="0.2" r="0.6">
      <stop offset="0" stop-color="#00b4a6" stop-opacity="0.35"></stop>
      <stop offset="1" stop-color="#00b4a6" stop-opacity="0"></stop>
    </radialGradient>
    <pattern id="oeDots" width="26" height="26" patternUnits="userSpaceOnUse">
      <circle cx="2" cy="2" r="1.1" fill="rgba(255,255,255,0.06)"></circle>
    </pattern>
  </defs>

  <rect width="640" height="360" fill="url(#oeBg)"></rect>
  <rect width="640" height="360" fill="url(#oeDots)"></rect>
  <rect width="640" height="360" fill="url(#oeGlow)"></rect>

  
  <g stroke="rgba(0,180,166,0.35)" stroke-width="2" fill="none">
    <circle cx="120" cy="90" r="7" fill="rgba(0,180,166,0.5)"></circle>
    <circle cx="185" cy="60" r="5"></circle>
    <circle cx="95" cy="150" r="5"></circle>
    <line x1="120" y1="90" x2="185" y2="60"></line>
    <line x1="120" y1="90" x2="95" y2="150"></line>
  </g>
  <g stroke="rgba(232,184,75,0.4)" stroke-width="2" fill="none">
    <circle cx="540" cy="285" r="6" fill="rgba(232,184,75,0.55)"></circle>
    <circle cx="500" cy="315" r="4"></circle>
    <line x1="540" y1="285" x2="500" y2="315"></line>
  </g>

  
  <g transform="translate(320 180) rotate(45)">
    
    <rect x="-26" y="-150" width="52" height="230" rx="26" fill="url(#oePen)"></rect>
    
    <rect x="-26" y="-150" width="20" height="230" rx="20" fill="rgba(255,255,255,0.14)"></rect>
    
    <rect x="-26" y="-150" width="52" height="52" rx="20" fill="#0d2d4e"></rect>
    <rect x="-26" y="-150" width="52" height="10" rx="5" fill="#e8b84b"></rect>
    
    <rect x="-14" y="-78" width="28" height="34" rx="8" fill="#0d2d4e"></rect>
    <text x="0" y="-52" font-family="Inter, sans-serif" font-size="20" font-weight="700" fill="#00b4a6" text-anchor="middle">1</text>
    
    <rect x="-6" y="80" width="12" height="40" rx="3" fill="#cbd5e1"></rect>
    <path d="M-3 120 L0 150 L3 120 Z" fill="#94a3b8"></path>
  </g>
</svg>